<?xml version="1.0" standalone="no"?>
<!DOCTYPE svg PUBLIC "-//W3C//DTD SVG 20010904//EN"
 "http://www.w3.org/TR/2001/REC-SVG-20010904/DTD/svg10.dtd">
<svg version="1.0" xmlns="http://www.w3.org/2000/svg"
 width="784.000000pt" height="1168.000000pt" viewBox="0 0 784.000000 1168.000000"
 preserveAspectRatio="xMidYMid meet">
<metadata>
Created by potrace 1.16, written by Peter Selinger 2001-2019
</metadata>
<g transform="translate(0.000000,1168.000000) scale(0.100000,-0.100000)"
fill="#000000" stroke="none">
<path d="M5989 10366 c-123 -65 -441 -184 -579 -216 -122 -28 -166 -78 -177
-200 -6 -58 -4 -63 59 -187 184 -360 300 -805 269 -1033 -16 -124 -33 -152
-178 -296 -214 -214 -325 -367 -448 -619 -107 -219 -161 -367 -251 -685 -185
-654 -421 -1177 -756 -1678 -242 -363 -587 -766 -895 -1048 -256 -234 -523
-432 -1103 -822 -523 -352 -592 -408 -1062 -858 -69 -67 -184 -167 -255 -221
-163 -128 -258 -224 -303 -311 -20 -38 -22 -53 -17 -140 4 -92 9 -110 95 -342
100 -269 104 -275 211 -334 94 -51 146 -56 696 -67 772 -17 974 -5 1389 82
443 92 797 216 1226 430 845 422 1657 1067 2271 1805 344 414 598 803 838
1284 243 488 392 920 476 1373 41 226 57 389 58 592 1 539 -144 995 -434 1361
-86 108 -251 258 -373 338 -181 119 -226 195 -232 396 -2 63 -9 259 -14 435
-16 477 -47 802 -85 875 -8 16 -24 34 -36 40 -16 9 -300 80 -320 80 -3 0 -35
-15 -70 -34z m215 -771 c37 -212 58 -381 76 -610 20 -251 70 -417 162 -540 30
-39 114 -123 190 -190 169 -148 257 -246 336 -378 112 -185 177 -370 214 -611
18 -114 22 -184 22 -371 0 -313 -25 -521 -99 -833 -169 -706 -574 -1496 -1099
-2147 -514 -637 -1173 -1203 -1891 -1625 -116 -68 -563 -300 -579 -300 -3 0
-33 -13 -69 -30 -102 -47 -332 -134 -457 -173 -417 -130 -674 -161 -1473 -178
-291 -6 -530 -10 -532 -8 -1 2 -10 54 -19 114 -9 61 -19 127 -22 147 l-6 36
103 32 c57 18 210 69 339 115 1139 400 2086 962 2885 1711 754 708 1294 1489
1627 2354 207 539 294 973 305 1525 5 274 -7 495 -42 765 -7 58 -16 182 -20
275 -13 367 -46 771 -79 972 l-13 83 51 39 c28 21 52 36 53 32 1 -3 18 -96 37
-206z m-404 97 l84 -17 9 -40 c71 -338 136 -919 122 -1090 -5 -65 -2 -96 15
-160 34 -132 43 -266 37 -580 -8 -370 -32 -606 -93 -899 -108 -515 -385 -1155
-747 -1726 -366 -578 -870 -1139 -1452 -1615 -607 -497 -1363 -946 -2170
-1287 -226 -96 -670 -257 -680 -247 -12 13 -125 240 -124 251 0 7 57 58 126
113 69 55 207 174 307 265 336 305 387 344 836 641 675 447 918 627 1182 876
561 531 978 1089 1293 1728 199 404 283 622 440 1150 92 308 169 514 255 685
48 95 164 263 257 371 185 216 232 303 274 504 17 82 15 346 -5 478 -26 178
-100 476 -152 611 -7 17 -3 18 47 12 30 -4 92 -15 139 -24z"/>
</g>
</svg>
